<svg xmlns="http://www.w3.org/2000/svg" width="64" height="64" viewBox="0 0 64 64">
  <defs>
    <linearGradient id="grad1" x1="0%" y1="0%" x2="100%" y2="100%">
      <stop offset="0%" style="stop-color:#1a365d;stop-opacity:1" />
      <stop offset="100%" style="stop-color:#2d3748;stop-opacity:1" />
    </linearGradient>
    <linearGradient id="grad2" x1="0%" y1="0%" x2="100%" y2="100%">
      <stop offset="0%" style="stop-color:#3182ce;stop-opacity:1" />
      <stop offset="100%" style="stop-color:#2b6cb0;stop-opacity:1" />
    </linearGradient>
  </defs>
  
  <!-- Background -->
  <rect width="64" height="64" rx="8" fill="url(#grad1)"/>
  
  <!-- Main building structure -->
  <rect x="12" y="20" width="16" height="32" fill="url(#grad2)" rx="2"/>
  <rect x="32" y="15" width="20" height="37" fill="url(#grad2)" rx="2"/>
  
  <!-- Industrial elements -->
  <rect x="14" y="25" width="12" height="2" fill="#ffffff" opacity="0.9"/>
  <rect x="14" y="30" width="12" height="2" fill="#ffffff" opacity="0.9"/>
  <rect x="14" y="35" width="12" height="2" fill="#ffffff" opacity="0.9"/>
  <rect x="14" y="40" width="12" height="2" fill="#ffffff" opacity="0.9"/>
  
  <rect x="35" y="20" width="14" height="2" fill="#ffffff" opacity="0.9"/>
  <rect x="35" y="25" width="14" height="2" fill="#ffffff" opacity="0.9"/>
  <rect x="35" y="30" width="14" height="2" fill="#ffffff" opacity="0.9"/>
  <rect x="35" y="35" width="14" height="2" fill="#ffffff" opacity="0.9"/>
  <rect x="35" y="40" width="14" height="2" fill="#ffffff" opacity="0.9"/>
  
  <!-- Chimney/Industrial stack -->
  <rect x="38" y="8" width="4" height="12" fill="#4a5568" rx="1"/>
  <rect x="44" y="10" width="3" height="10" fill="#4a5568" rx="1"/>
  
  <!-- EU element - subtle stars -->
  <circle cx="20" cy="15" r="1" fill="#ffd700" opacity="0.8"/>
  <circle cx="45" cy="12" r="1" fill="#ffd700" opacity="0.8"/>
  
  <!-- Modern accent line -->
  <rect x="8" y="56" width="48" height="2" fill="#3182ce" rx="1"/>
</svg>
