<svg xmlns="http://www.w3.org/2000/svg" width="64" height="64" viewBox="0 0 64 64">
  <defs>
    <linearGradient id="metalGrad" x1="0%" y1="0%" x2="100%" y2="100%">
      <stop offset="0%" style="stop-color:#2d3748;stop-opacity:1" />
      <stop offset="50%" style="stop-color:#1a202c;stop-opacity:1" />
      <stop offset="100%" style="stop-color:#2d3748;stop-opacity:1" />
    </linearGradient>
    <linearGradient id="blueGrad" x1="0%" y1="0%" x2="100%" y2="100%">
      <stop offset="0%" style="stop-color:#2b6cb0;stop-opacity:1" />
      <stop offset="100%" style="stop-color:#2c5282;stop-opacity:1" />
    </linearGradient>
  </defs>
  
  <!-- Background with subtle rounded corners -->
  <rect width="64" height="64" rx="12" fill="url(#metalGrad)"/>
  
  <!-- Abstract geometric building forms -->
  <polygon points="16,48 24,20 32,48" fill="url(#blueGrad)" opacity="0.9"/>
  <polygon points="32,48 40,15 48,48" fill="url(#blueGrad)" opacity="0.95"/>
  
  <!-- Industrial grid pattern -->
  <rect x="18" y="25" width="6" height="1.5" fill="#ffffff" opacity="0.7"/>
  <rect x="18" y="30" width="6" height="1.5" fill="#ffffff" opacity="0.7"/>
  <rect x="18" y="35" width="6" height="1.5" fill="#ffffff" opacity="0.7"/>
  <rect x="18" y="40" width="6" height="1.5" fill="#ffffff" opacity="0.7"/>
  
  <rect x="34" y="20" width="6" height="1.5" fill="#ffffff" opacity="0.7"/>
  <rect x="34" y="25" width="6" height="1.5" fill="#ffffff" opacity="0.7"/>
  <rect x="34" y="30" width="6" height="1.5" fill="#ffffff" opacity="0.7"/>
  <rect x="34" y="35" width="6" height="1.5" fill="#ffffff" opacity="0.7"/>
  <rect x="34" y="40" width="6" height="1.5" fill="#ffffff" opacity="0.7"/>
  
  <!-- Modern accent -->
  <rect x="12" y="52" width="40" height="3" fill="#3182ce" rx="1.5"/>
  
  <!-- Subtle geometric detail -->
  <circle cx="32" cy="12" r="2" fill="#ffffff" opacity="0.3"/>
</svg>
